<?xml version="1.0" encoding="UTF-8"?>
<svg version="1.1" xmlns="http://www.w3.org/2000/svg" width="1024" height="1024">
<path d="M0 0 C337.92 0 675.84 0 1024 0 C1024 337.92 1024 675.84 1024 1024 C686.08 1024 348.16 1024 0 1024 C0 686.08 0 348.16 0 0 Z " fill="#F8F5F3" transform="translate(0,0)"/>
<path d="M0 0 C0.88027863 -0.00067474 1.76055725 -0.00134949 2.66751099 -0.00204468 C44.75611822 0.04889564 84.33803985 8.71976664 123 25.25 C123.76296387 25.5701709 124.52592773 25.8903418 125.31201172 26.22021484 C153.55344987 38.18044081 179.69655013 56.52687804 203 76.25 C204.0000708 77.08015625 205.0001416 77.9103125 206.03051758 78.765625 C214.76632172 86.07308462 222.90288112 93.87205171 230.91625977 101.96044922 C232.95462493 104.01728007 235.00108947 106.06578617 237.04882812 108.11328125 C238.37547536 109.44483906 239.70166398 110.77685399 241.02734375 112.109375 C241.92440285 113.00810333 241.92440285 113.00810333 242.83958435 113.92498779 C247.07972891 118.21218441 251.06495869 122.68273938 255 127.25 C255.94948559 128.3329398 256.89981938 129.41513746 257.8515625 130.49609375 C265.06200873 138.76360915 271.77434106 147.3419477 278.37207031 156.10302734 C279.94830496 158.1818227 281.54385471 160.24381608 283.1484375 162.30078125 C292.2273465 173.96523313 300.72666556 186.00275245 309 198.25 C309.78407227 199.3932373 309.78407227 199.3932373 310.58398438 200.55957031 C319.56162983 213.75658666 319.56162983 213.75658666 318.64233398 221.47973633 C316.51404455 230.65864178 309.63101816 239.10943443 304.4375 246.8125 C303.73931152 247.85317627 303.04112305 248.89385254 302.32177734 249.96606445 C278.35886167 285.50151448 251.13935389 322.34413843 218.3125 350.2734375 C216.47816646 351.84129691 214.67288617 353.43014655 212.875 355.0390625 C187.07366171 377.99027375 158.11519976 396.39683865 127 411.25 C126.32066406 411.57709961 125.64132812 411.90419922 124.94140625 412.24121094 C97.91852408 425.13620825 69.45259343 431.76401757 40 436.25 C38.76765625 436.43949219 37.5353125 436.62898438 36.265625 436.82421875 C-5.4149037 442.25864175 -49.12930868 436.79219606 -89 424.25 C-89.86882812 423.97961914 -90.73765625 423.70923828 -91.6328125 423.43066406 C-132.3641631 410.55236939 -169.88503546 387.59245833 -202.11865234 359.82788086 C-203.52262986 358.65036896 -204.94859872 357.49898556 -206.38525391 356.36157227 C-213.58209376 350.6369024 -220.09308519 344.4347387 -226.55371094 337.90209961 C-228.25659392 336.1808349 -229.96746929 334.4678334 -231.6796875 332.75585938 C-237.32949116 327.08798772 -242.82805004 321.36269788 -248 315.25 C-248.9488455 314.16649933 -249.89932073 313.0844233 -250.8515625 312.00390625 C-258.11335352 303.67679365 -264.86845209 295.03100959 -271.51416016 286.20751953 C-272.81968177 284.48756024 -274.14197477 282.78417457 -275.48046875 281.08984375 C-286.13204275 267.54789289 -295.84237329 253.23959392 -305.25 238.8125 C-305.67917725 238.15797852 -306.10835449 237.50345703 -306.55053711 236.82910156 C-315.764825 222.51427859 -315.764825 222.51427859 -314 214.25 C-310.33391267 206.0533367 -305.0724311 198.62076792 -300 191.25 C-298.88286621 189.61913452 -298.88286621 189.61913452 -297.74316406 187.95532227 C-287.55257469 173.12578804 -276.8507706 158.81217639 -265.38964844 144.94384766 C-263.47737024 142.61296464 -261.61443338 140.24423056 -259.75 137.875 C-256.37610861 133.64165417 -252.80132972 129.62194323 -249.15625 125.62109375 C-247.22466608 123.49705128 -245.32343182 121.35203539 -243.4375 119.1875 C-242.88578125 118.55714844 -242.3340625 117.92679687 -241.765625 117.27734375 C-240.45722982 115.77500504 -239.15628091 114.26617428 -237.859375 112.75390625 C-237.14265625 111.92761719 -236.4259375 111.10132813 -235.6875 110.25 C-235.03136719 109.486875 -234.37523437 108.72375 -233.69921875 107.9375 C-232 106.25 -232 106.25 -230 106.25 C-229.74089844 105.65316406 -229.48179687 105.05632812 -229.21484375 104.44140625 C-227.90070025 102.0708773 -226.65528302 100.888702 -224.5625 99.1875 C-221.07536293 96.24798193 -217.87354278 93.13863981 -214.6875 89.875 C-209.44894451 84.5579068 -203.84770766 79.8791159 -198 75.25 C-196.89039322 74.34040961 -195.78239264 73.42885724 -194.67578125 72.515625 C-178.98441247 59.63539238 -162.43798641 48.38761054 -144.61035156 38.67480469 C-142.06049762 37.28302133 -139.52657638 35.86500741 -136.9921875 34.4453125 C-107.94677817 18.43845344 -76.51069837 9.03866686 -44 3.25 C-43.28682617 3.12254395 -42.57365234 2.99508789 -41.83886719 2.86376953 C-27.93524623 0.43081662 -14.07703267 0.00974715 0 0 Z " fill="#F7F4F3" transform="translate(510,293.75)"/>
<path d="M0 0 C0.88027863 -0.00067474 1.76055725 -0.00134949 2.66751099 -0.00204468 C44.75611822 0.04889564 84.33803985 8.71976664 123 25.25 C123.76296387 25.5701709 124.52592773 25.8903418 125.31201172 26.22021484 C153.55344987 38.18044081 179.69655013 56.52687804 203 76.25 C204.0000708 77.08015625 205.0001416 77.9103125 206.03051758 78.765625 C214.76632172 86.07308462 222.90288112 93.87205171 230.91625977 101.96044922 C232.95462493 104.01728007 235.00108947 106.06578617 237.04882812 108.11328125 C238.37547536 109.44483906 239.70166398 110.77685399 241.02734375 112.109375 C241.92440285 113.00810333 241.92440285 113.00810333 242.83958435 113.92498779 C247.07972891 118.21218441 251.06495869 122.68273938 255 127.25 C255.94948559 128.3329398 256.89981938 129.41513746 257.8515625 130.49609375 C265.06200873 138.76360915 271.77434106 147.3419477 278.37207031 156.10302734 C279.94830496 158.1818227 281.54385471 160.24381608 283.1484375 162.30078125 C292.2273465 173.96523313 300.72666556 186.00275245 309 198.25 C309.78407227 199.3932373 309.78407227 199.3932373 310.58398438 200.55957031 C319.56162983 213.75658666 319.56162983 213.75658666 318.64233398 221.47973633 C316.51404455 230.65864178 309.63101816 239.10943443 304.4375 246.8125 C303.73931152 247.85317627 303.04112305 248.89385254 302.32177734 249.96606445 C278.35886167 285.50151448 251.13935389 322.34413843 218.3125 350.2734375 C216.47816646 351.84129691 214.67288617 353.43014655 212.875 355.0390625 C187.07366171 377.99027375 158.11519976 396.39683865 127 411.25 C126.32066406 411.57709961 125.64132812 411.90419922 124.94140625 412.24121094 C97.91852408 425.13620825 69.45259343 431.76401757 40 436.25 C38.76765625 436.43949219 37.5353125 436.62898438 36.265625 436.82421875 C-5.4149037 442.25864175 -49.12930868 436.79219606 -89 424.25 C-89.86882812 423.97961914 -90.73765625 423.70923828 -91.6328125 423.43066406 C-132.3641631 410.55236939 -169.88503546 387.59245833 -202.11865234 359.82788086 C-203.52262986 358.65036896 -204.94859872 357.49898556 -206.38525391 356.36157227 C-213.58209376 350.6369024 -220.09308519 344.4347387 -226.55371094 337.90209961 C-228.25659392 336.1808349 -229.96746929 334.4678334 -231.6796875 332.75585938 C-237.32949116 327.08798772 -242.82805004 321.36269788 -248 315.25 C-248.9488455 314.16649933 -249.89932073 313.0844233 -250.8515625 312.00390625 C-258.11335352 303.67679365 -264.86845209 295.03100959 -271.51416016 286.20751953 C-272.81968177 284.48756024 -274.14197477 282.78417457 -275.48046875 281.08984375 C-286.13204275 267.54789289 -295.84237329 253.23959392 -305.25 238.8125 C-305.67917725 238.15797852 -306.10835449 237.50345703 -306.55053711 236.82910156 C-315.764825 222.51427859 -315.764825 222.51427859 -314 214.25 C-310.33391267 206.0533367 -305.0724311 198.62076792 -300 191.25 C-298.88286621 189.61913452 -298.88286621 189.61913452 -297.74316406 187.95532227 C-287.55257469 173.12578804 -276.8507706 158.81217639 -265.38964844 144.94384766 C-263.47737024 142.61296464 -261.61443338 140.24423056 -259.75 137.875 C-256.37610861 133.64165417 -252.80132972 129.62194323 -249.15625 125.62109375 C-247.22466608 123.49705128 -245.32343182 121.35203539 -243.4375 119.1875 C-242.88578125 118.55714844 -242.3340625 117.92679687 -241.765625 117.27734375 C-240.45722982 115.77500504 -239.15628091 114.26617428 -237.859375 112.75390625 C-237.14265625 111.92761719 -236.4259375 111.10132813 -235.6875 110.25 C-235.03136719 109.486875 -234.37523437 108.72375 -233.69921875 107.9375 C-232 106.25 -232 106.25 -230 106.25 C-229.74089844 105.65316406 -229.48179687 105.05632812 -229.21484375 104.44140625 C-227.90070025 102.0708773 -226.65528302 100.888702 -224.5625 99.1875 C-221.07536293 96.24798193 -217.87354278 93.13863981 -214.6875 89.875 C-209.44894451 84.5579068 -203.84770766 79.8791159 -198 75.25 C-196.89039322 74.34040961 -195.78239264 73.42885724 -194.67578125 72.515625 C-178.98441247 59.63539238 -162.43798641 48.38761054 -144.61035156 38.67480469 C-142.06049762 37.28302133 -139.52657638 35.86500741 -136.9921875 34.4453125 C-107.94677817 18.43845344 -76.51069837 9.03866686 -44 3.25 C-43.28682617 3.12254395 -42.57365234 2.99508789 -41.83886719 2.86376953 C-27.93524623 0.43081662 -14.07703267 0.00974715 0 0 Z M-111 84.25 C-111.53979492 84.63865234 -112.07958984 85.02730469 -112.63574219 85.42773438 C-120.95326005 91.47241383 -128.56317966 98.16194089 -136 105.25 C-136.84175781 106.02730469 -137.68351562 106.80460937 -138.55078125 107.60546875 C-167.21277178 134.89607217 -184.10630485 175.30284398 -185.125 214.58203125 C-185.91991906 259.74278578 -169.27634751 299.83880679 -138 332.25 C-137.16339844 333.14976562 -136.32679688 334.04953125 -135.46484375 334.9765625 C-122.60278552 348.4400141 -107.38628681 358.56794742 -91 367.25 C-90.29407715 367.62495605 -89.5881543 367.99991211 -88.86083984 368.38623047 C-71.04689443 377.67808535 -51.76051548 383.01163603 -32 386.25 C-31.00291016 386.42732666 -30.00582031 386.60465332 -28.97851562 386.78735352 C-18.80425847 388.45170674 -8.78830748 388.60541567 1.5 388.5625 C2.38229279 388.56100952 3.26458557 388.55951904 4.1736145 388.5579834 C17.64911698 388.51707036 30.75806398 387.93836505 44 385.25 C45.09513916 385.04117188 45.09513916 385.04117188 46.21240234 384.828125 C78.28193923 378.60578503 107.47349494 363.61994904 132 342.25 C132.58652344 341.7432373 133.17304687 341.23647461 133.77734375 340.71435547 C164.54972883 313.92807583 185.6441347 275.20073933 189 234.25 C189.66862824 218.08500529 189.60508521 202.07013062 186 186.25 C185.83902832 185.52377441 185.67805664 184.79754883 185.51220703 184.04931641 C178.63641998 154.0560897 162.92706332 128.43194895 142 106.25 C141.27941406 105.46496094 140.55882812 104.67992187 139.81640625 103.87109375 C128.89621055 92.39844296 115.7345752 83.05297642 102 75.25 C100.87851562 74.59644531 99.75703125 73.94289063 98.6015625 73.26953125 C70.12501678 57.08558294 37.08279286 50.00705395 4.5625 50.0625 C3.4979509 50.06390488 3.4979509 50.06390488 2.41189575 50.06533813 C-37.89666724 50.18044228 -77.91887673 60.39098015 -111 84.25 Z " fill="#008AD2" transform="translate(510,293.75)"/>
<path d="M0 0 C0.91104492 -0.00622879 1.82208984 -0.01245758 2.76074219 -0.01887512 C4.23269043 -0.0050605 4.23269043 -0.0050605 5.734375 0.0090332 C6.7440332 0.0085347 7.75369141 0.00803619 8.79394531 0.00752258 C10.92905647 0.00986353 13.06417037 0.01959325 15.19921875 0.03613281 C18.47160459 0.0597224 21.74317577 0.05669414 25.015625 0.05004883 C27.08854654 0.05562561 29.16146463 0.06273549 31.234375 0.0715332 C32.70632324 0.07016609 32.70632324 0.07016609 34.20800781 0.06877136 C35.11905273 0.07830338 36.03009766 0.08783539 36.96875 0.09765625 C37.77022461 0.10226364 38.57169922 0.10687103 39.39746094 0.11161804 C41.484375 0.37231445 41.484375 0.37231445 44.484375 2.37231445 C45.61611278 5.76752779 45.63039124 8.3842058 45.65846252 11.96537781 C45.66496148 12.63860527 45.67146043 13.31183274 45.67815632 14.00546104 C45.6985722 16.26664966 45.71177583 18.52782035 45.72485352 20.7890625 C45.73766651 22.40884651 45.75080202 24.028628 45.76423645 25.64840698 C45.88037543 40.46925699 45.93683771 55.29078199 45.98100376 70.11200237 C46.01416673 81.05546339 46.07356861 91.99809069 46.16851479 102.94119424 C46.23309717 110.6475866 46.26657941 118.35375354 46.27775329 126.06040603 C46.28527664 130.65557573 46.30613743 135.24973902 46.36078072 139.84461021 C46.41172049 144.17964106 46.42367873 148.51314731 46.40752983 152.84843063 C46.40812701 154.42692422 46.42208202 156.00548783 46.45147705 157.58370781 C46.83179936 179.15787763 33.87364358 196.38602614 19.38671875 211.4387207 C13.53053187 217.40162625 7.3843038 222.57945233 0.546875 227.37231445 C-0.021521 227.77095703 -0.58991699 228.16959961 -1.17553711 228.58032227 C-5.26416404 231.37231445 -5.26416404 231.37231445 -7.515625 231.37231445 C-7.5840226 202.37754613 -7.63713324 173.38278565 -7.66882099 144.38795282 C-7.67257323 140.96696841 -7.67645619 137.54598417 -7.68041992 134.125 C-7.68120685 133.44392676 -7.68199378 132.76285353 -7.68280456 132.06114171 C-7.6958682 121.02478291 -7.71952728 109.98847086 -7.74708339 98.95213982 C-7.775111 87.63279184 -7.791571 76.31347858 -7.79789048 64.99409372 C-7.80180995 58.63407413 -7.81105568 52.27416068 -7.83281517 45.91417503 C-7.85311321 39.93313252 -7.85947236 33.95224029 -7.85494804 27.97116661 C-7.85577625 25.77127772 -7.86178146 23.57138401 -7.87324142 21.37152481 C-7.8880809 18.37710926 -7.88460988 15.38326747 -7.87638855 12.38883972 C-7.88512707 11.51044203 -7.8938656 10.63204435 -7.90286893 9.72702855 C-7.8585991 3.79645896 -7.8585991 3.79645896 -6.12298566 1.65008432 C-3.99246655 -0.04356987 -2.70309312 -0.00212283 0 0 Z " fill="#00B17B" transform="translate(553.515625,398.627685546875)"/>
<path d="M0 0 C1.301437 -0.01868637 1.301437 -0.01868637 2.62916565 -0.03775024 C4.01530312 -0.010121 4.01530312 -0.010121 5.42944336 0.01806641 C6.86954018 0.01657089 6.86954018 0.01657089 8.33872986 0.01504517 C10.36359966 0.01971653 12.38848213 0.03911497 14.41308594 0.07226562 C17.51269226 0.11952835 20.60886426 0.11337546 23.70874023 0.10009766 C25.67816178 0.11124984 27.64756886 0.12546877 29.61694336 0.14306641 C30.54305923 0.14124359 31.46917511 0.13942078 32.4233551 0.13754272 C38.8352992 0.27894395 38.8352992 0.27894395 42.00927734 2.65722656 C44.63764319 6.44749946 44.59574875 9.37103654 44.57704163 13.8565979 C44.57789605 14.59742973 44.57875048 15.33826155 44.57963079 16.10154283 C44.58128464 18.59669078 44.57576576 21.09177226 44.5703125 23.58691406 C44.57003058 25.37043761 44.57018845 27.15396127 44.570755 28.93748474 C44.5710428 33.79052742 44.56514897 38.64354555 44.55818105 43.49658251 C44.55194452 48.56415719 44.55134347 53.63173238 44.55015564 58.6993103 C44.54704321 68.30051788 44.538831 77.90171412 44.52880615 87.50291669 C44.51764228 98.43141141 44.51213387 109.35990666 44.50711071 120.28840566 C44.49664832 142.7738197 44.47905058 165.25922367 44.45678711 187.74462891 C41.79153172 188.41033361 39.12440638 189.06579511 36.45532227 189.71582031 C35.3393441 189.99619896 35.3393441 189.99619896 34.20082092 190.28224182 C26.69404721 192.09474918 19.55575247 192.27014721 11.83178711 192.11962891 C10.5362793 192.11833984 9.24077148 192.11705078 7.90600586 192.11572266 C1.63741032 192.05773976 -3.51502265 191.54086468 -9.54321289 189.74462891 C-9.6599928 165.98807819 -9.74817499 142.23157046 -9.80227375 118.47479057 C-9.82805995 107.4441964 -9.86321858 96.41378052 -9.92041016 85.38330078 C-9.97023219 75.76959621 -10.00250088 66.15602076 -10.01365536 56.54219067 C-10.02017612 51.45125224 -10.0355106 46.36068321 -10.07186317 41.26986313 C-10.10580357 36.47801755 -10.11626976 31.68669352 -10.1087513 26.89473915 C-10.11012672 25.13631799 -10.12007096 23.37787936 -10.13924026 21.61956215 C-10.16414898 19.2169166 -10.15812765 16.81623547 -10.14448547 14.4135437 C-10.15904968 13.71897721 -10.17361389 13.02441072 -10.18861943 12.30879676 C-10.09298436 6.07025921 -6.93020661 -0.01150196 0 0 Z " fill="#122F4B" transform="translate(481.543212890625,451.25537109375)"/>
<path d="M0 0 C0.82435547 -0.0157608 1.64871094 -0.03152161 2.49804688 -0.04776001 C3.81385742 -0.03257828 3.81385742 -0.03257828 5.15625 -0.01708984 C6.06955078 -0.02187347 6.98285156 -0.0266571 7.92382812 -0.03158569 C9.85027799 -0.03498052 11.77678579 -0.02580729 13.703125 -0.00488281 C16.64714348 0.02188984 19.5873497 -0.00464357 22.53125 -0.03662109 C24.40625839 -0.03331692 26.28126442 -0.02691053 28.15625 -0.01708984 C29.03345703 -0.027211 29.91066406 -0.03733215 30.81445312 -0.04776001 C31.63880859 -0.03199921 32.46316406 -0.0162384 33.3125 0 C34.03244141 0.00397797 34.75238281 0.00795593 35.49414062 0.01205444 C39.20239086 1.1010075 40.43553535 2.45115095 42.65625 5.64697266 C43.38819302 9.90360525 43.28707594 14.11452813 43.22387695 18.42358398 C43.22460709 19.721539 43.22533722 21.01949402 43.22608948 22.35678101 C43.22752221 25.90837236 43.19815719 29.45911685 43.16321969 33.01051164 C43.1319315 36.72471191 43.12902354 40.43893229 43.12309265 44.15324402 C43.10756133 51.18333396 43.06654289 58.21303444 43.0163452 65.242953 C42.96042927 73.2476983 42.93295965 81.25246235 42.90786803 89.25735438 C42.85562608 105.72078834 42.76769811 122.18383077 42.65625 138.64697266 C41.07603903 138.19059152 39.49720291 137.72944856 37.91894531 137.26635742 C37.03958313 137.01008072 36.16022095 136.75380402 35.25421143 136.48976135 C31.41494113 135.24428728 27.94461138 133.50758733 24.40625 131.58447266 C23.68244141 131.19525635 22.95863281 130.80604004 22.21289062 130.4050293 C11.08005102 124.27635719 -2.21648518 116.33786989 -9.34375 105.64697266 C-9.60381222 103.73005867 -9.60381222 103.73005867 -9.61790466 101.52346802 C-9.62787979 100.68515442 -9.63785492 99.84684082 -9.64813232 98.98312378 C-9.648797 98.06669098 -9.64946167 97.15025818 -9.65014648 96.20605469 C-9.65847 95.23829102 -9.66679352 94.27052734 -9.67536926 93.2734375 C-9.69950843 90.06717939 -9.70824609 86.86112456 -9.71484375 83.65478516 C-9.72380689 81.42902565 -9.73292867 79.20326678 -9.74220276 76.97750854 C-9.75870582 72.30855849 -9.76639531 67.63968027 -9.76928711 62.97070312 C-9.77467309 56.98595912 -9.81235705 51.00188939 -9.85803127 45.01733589 C-9.88776307 40.41911347 -9.89500983 35.82105419 -9.89601326 31.22274399 C-9.90022303 29.01630438 -9.91268746 26.80986461 -9.93353081 24.60351944 C-9.96036473 21.51740077 -9.9556431 18.43285516 -9.94311523 15.34667969 C-9.95794952 14.43429535 -9.97278381 13.52191101 -9.98806763 12.58187866 C-9.93702338 8.169697 -9.7707582 6.22470164 -7.07777405 2.58117676 C-4.36273694 0.6604051 -3.24777322 0.01794526 0 0 Z " fill="#112E4A" transform="translate(409.34375,497.35302734375)"/>
<path d="M0 0 C2 2 2 2 2.1953125 4.6015625 C2.17210937 5.59929687 2.14890625 6.59703125 2.125 7.625 C2.10695313 8.62789063 2.08890625 9.63078125 2.0703125 10.6640625 C2.03550781 11.82035156 2.03550781 11.82035156 2 13 C2.66 13.33 3.32 13.66 4 14 C3.34 14 2.68 14 2 14 C2 38.42 2 62.84 2 88 C1.01 88.495 1.01 88.495 0 89 C0 59.63 0 30.26 0 0 Z " fill="#FDFCFA" transform="translate(526,459)"/>
<path d="M0 0 C0.33 0 0.66 0 1 0 C1.33 14.19 1.66 28.38 2 43 C4.97 43.66 7.94 44.32 11 45 C11 45.33 11 45.66 11 46 C9.865625 45.979375 8.73125 45.95875 7.5625 45.9375 C4.18424326 45.58422523 4.18424326 45.58422523 3 47 C1.71734291 54.64747504 1.79370213 62.49628411 1.68359375 70.2265625 C1.66281265 71.45539154 1.64203156 72.68422058 1.62062073 73.95028687 C1.5556955 77.84180585 1.49650762 81.73338724 1.4375 85.625 C1.39426044 88.27734998 1.3506445 90.92969384 1.30664062 93.58203125 C1.20007327 100.05462322 1.09820532 106.52727604 1 113 C1.66 113.33 2.32 113.66 3 114 C1.515 114.495 1.515 114.495 0 115 C0 77.05 0 39.1 0 0 Z " fill="#02A76B" transform="translate(546,515)"/>
<path d="M0 0 C0.33 0 0.66 0 1 0 C1 17.82 1 35.64 1 54 C-1 52 -1 52 -1.21118164 50.16821289 C-1.19434326 49.4436792 -1.17750488 48.71914551 -1.16015625 47.97265625 C-1.1437207 46.78446289 -1.1437207 46.78446289 -1.12695312 45.57226562 C-1.10568359 44.74404297 -1.08441406 43.91582031 -1.0625 43.0625 C-1.02800534 41.42847507 -0.9978794 39.79435059 -0.97265625 38.16015625 C-0.95468994 37.43449463 -0.93672363 36.70883301 -0.91821289 35.96118164 C-0.91850712 33.783771 -0.91850712 33.783771 -2 31 C-1.91156922 29.01743902 -1.75641259 27.03753569 -1.5625 25.0625 C-1.16364384 20.53876434 -0.94891411 16.10346832 -1 11.5625 C-1.04213977 7.58555891 -0.86750241 3.90376087 0 0 Z " fill="#FDF8FB" transform="translate(545,446)"/>
<path d="M0 0 C0.33 0 0.66 0 1 0 C1.05785647 3.95827235 1.09354717 7.9164367 1.125 11.875 C1.14175781 13.00292969 1.15851562 14.13085938 1.17578125 15.29296875 C1.18222656 16.36933594 1.18867187 17.44570313 1.1953125 18.5546875 C1.20578613 19.54968262 1.21625977 20.54467773 1.22705078 21.56982422 C1 24 1 24 -1 26 C-0.98839844 25.10796875 -0.97679687 24.2159375 -0.96484375 23.296875 C-0.95582031 22.12640625 -0.94679688 20.9559375 -0.9375 19.75 C-0.92589844 18.58984375 -0.91429687 17.4296875 -0.90234375 16.234375 C-0.98334886 13.55148569 -1.34334645 11.55606466 -2 9 C-1.70212766 1.70212766 -1.70212766 1.70212766 0 0 Z " fill="#FDF9FA" transform="translate(545,604)"/>
<path d="M0 0 C0.33 0.99 0.66 1.98 1 3 C0.443125 3.53625 -0.11375 4.0725 -0.6875 4.625 C-3.09185415 7.02145657 -3.09185415 7.02145657 -5.375 9.9375 C-7.93937276 13.07705918 -10.82429838 15.48898011 -14 18 C-14.66 17.67 -15.32 17.34 -16 17 C-15.43152344 16.443125 -14.86304688 15.88625 -14.27734375 15.3125 C-9.29146714 10.38488906 -4.53204946 5.34810981 0 0 Z " fill="#067ECD" transform="translate(662,615)"/>
<path d="M0 0 C0.99 0 1.98 0 3 0 C1.88333826 3.34998521 1.25305075 3.79340222 -1.5625 5.6875 C-2.20316406 6.12449219 -2.84382812 6.56148437 -3.50390625 7.01171875 C-4.24447266 7.50091797 -4.24447266 7.50091797 -5 8 C-5.66 7.67 -6.32 7.34 -7 7 C-6.67 6.34 -6.34 5.68 -6 5 C-6.66 4.67 -7.32 4.34 -8 4 C-7.34 3.01 -6.68 2.02 -6 1 C-3.03 1.495 -3.03 1.495 0 2 C0 1.34 0 0.68 0 0 Z " fill="#07AB75" transform="translate(563,615)"/>
<path d="M0 0 C0 3 0 3 -2.484375 5.77734375 C-3.56542128 6.83841996 -4.65433684 7.89152389 -5.75 8.9375 C-6.55824219 9.72543945 -6.55824219 9.72543945 -7.3828125 10.52929688 C-8.4339934 11.55355729 -9.48794727 12.57498112 -10.54492188 13.59326172 C-12.38592496 15.37310396 -14.19593629 17.18279991 -16 19 C-16.66 18.67 -17.32 18.34 -18 18 C-12.06 12.06 -6.12 6.12 0 0 Z " fill="#FDFDF7" transform="translate(751,621)"/>
<path d="M0 0 C-0.99 1.485 -0.99 1.485 -2 3 C-4.73496028 3.27676965 -7.20866105 3.37250086 -9.9375 3.3125 C-10.66646484 3.31572266 -11.39542969 3.31894531 -12.14648438 3.32226562 C-15.94536286 3.28396346 -17.77250526 3.15166316 -21 1 C-13.97252688 0.33411422 -7.05985273 -0.11766421 0 0 Z " fill="#EAF2F2" transform="translate(507,344)"/>
<path d="M0 0 C2.94721162 2.74395564 5.19168608 5.38337216 7 9 C6.67 9.66 6.34 10.32 6 11 C4.68 10.67 3.36 10.34 2 10 C2.04125 9.278125 2.0825 8.55625 2.125 7.8125 C1.99078695 4.79270631 1.24829381 2.73064271 0 0 Z " fill="#1283CC" transform="translate(817,491)"/>
<path d="M0 0 C4.95 1.98 4.95 1.98 10 4 C9.01 4.99 8.02 5.98 7 7 C6.67 6.01 6.34 5.02 6 4 C2.99152582 2.77479736 2.99152582 2.77479736 0 2 C0 1.34 0 0.68 0 0 Z " fill="#0C83CC" transform="translate(620,314)"/>
<path d="M0 0 C0.66 1.32 1.32 2.64 2 4 C0.35 5.65 -1.3 7.3 -3 9 C-3.33 8.34 -3.66 7.68 -4 7 C-3.22265625 5.2734375 -3.22265625 5.2734375 -2.0625 3.375 C-1.381875 2.26125 -0.70125 1.1475 0 0 Z " fill="#0D87CE" transform="translate(678,591)"/>
<path d="M0 0 C-1.0625 1.5625 -1.0625 1.5625 -3 3 C-6.6875 2.6875 -6.6875 2.6875 -10 2 C-6.19832777 -0.53444815 -4.31588991 -1.33941411 0 0 Z " fill="#0D83CE" transform="translate(590,670)"/>
<path d="M0 0 C0.33 1.32 0.66 2.64 1 4 C0.01 4.33 -0.98 4.66 -2 5 C-3.20882096 7.00016466 -3.20882096 7.00016466 -4 9 C-4.66 8.67 -5.32 8.34 -6 8 C-4.02 5.36 -2.04 2.72 0 0 Z " fill="#1085CE" transform="translate(222,468)"/>
<path d="M0 0 C1.65 0 3.3 0 5 0 C5 1.32 5 2.64 5 4 C2.03 3.505 2.03 3.505 -1 3 C-0.67 2.01 -0.34 1.02 0 0 Z " fill="#EAF1F2" transform="translate(479,346)"/>
</svg>
