<?xml version="1.0" encoding="UTF-8"?>
<svg version="1.1" xmlns="http://www.w3.org/2000/svg" width="1024" height="1024">
<path d="M0 0 C337.92 0 675.84 0 1024 0 C1024 337.92 1024 675.84 1024 1024 C686.08 1024 348.16 1024 0 1024 C0 686.08 0 348.16 0 0 Z " fill="#F9F7F6" transform="translate(0,0)"/>
<path d="M0 0 C43.48113362 -1.05408809 79.92155289 17.77471652 110.85546875 47.203125 C117.29386355 53.45554418 123.0935899 60.07546797 128.6171875 67.15625 C129.40609375 68.13980469 130.195 69.12335938 131.0078125 70.13671875 C135.8685242 76.24691645 140.4278253 82.56642079 144.8046875 89.03125 C145.545979 90.0833667 145.545979 90.0833667 146.30224609 91.15673828 C148.56071056 94.57326472 149.60211585 96.50888665 149.69921875 100.6796875 C148.38586445 104.89949013 146.52945947 108.22737849 144.1171875 111.90625 C143.44115479 112.9588501 143.44115479 112.9588501 142.75146484 114.03271484 C138.78357195 120.10772448 134.36765944 125.67373812 129.6171875 131.15625 C128.73746346 132.21699546 127.85996088 133.27958616 126.984375 134.34375 C110.17124557 154.62055348 91.32850074 172.32409319 67.6171875 184.15625 C66.97458984 184.47819336 66.33199219 184.80013672 65.66992188 185.13183594 C38.34191136 198.54865316 5.23113926 202.56515909 -24.3828125 195.15625 C-25.42526123 194.89884033 -25.42526123 194.89884033 -26.48876953 194.63623047 C-48.72871903 188.9789212 -69.24403248 178.51844916 -86.3828125 163.15625 C-87.3315625 162.31578125 -88.2803125 161.4753125 -89.2578125 160.609375 C-92.3478467 157.84215754 -95.37495537 155.01235601 -98.3828125 152.15625 C-98.91696777 151.65077637 -99.45112305 151.14530273 -100.00146484 150.62451172 C-108.29597637 142.71946017 -115.57819253 134.3694734 -122.3828125 125.15625 C-122.82786133 124.55603027 -123.27291016 123.95581055 -123.73144531 123.33740234 C-128.00900923 117.53834089 -132.17243199 111.65612176 -136.0703125 105.59375 C-136.54855469 104.84996094 -137.02679688 104.10617187 -137.51953125 103.33984375 C-138.67326489 100.4215763 -138.38846118 99.12467789 -137.3828125 96.15625 C-136.13314273 93.90172049 -134.86651818 91.79554801 -133.4453125 89.65625 C-133.04634766 89.04676514 -132.64738281 88.43728027 -132.23632812 87.80932617 C-127.93911234 81.33760558 -123.22561027 75.22517014 -118.3828125 69.15625 C-117.67640625 68.25519531 -116.97 67.35414063 -116.2421875 66.42578125 C-89.01546385 32.29153697 -52.51010178 5.82641295 -8.2578125 0.40625 C-5.50691579 0.21974853 -2.75442488 0.12722517 0 0 Z " fill="#F8F6F6" transform="translate(174.3828125,404.84375)"/>
<path d="M0 0 C43.48113362 -1.05408809 79.92155289 17.77471652 110.85546875 47.203125 C117.29386355 53.45554418 123.0935899 60.07546797 128.6171875 67.15625 C129.40609375 68.13980469 130.195 69.12335938 131.0078125 70.13671875 C135.8685242 76.24691645 140.4278253 82.56642079 144.8046875 89.03125 C145.545979 90.0833667 145.545979 90.0833667 146.30224609 91.15673828 C148.56071056 94.57326472 149.60211585 96.50888665 149.69921875 100.6796875 C148.38586445 104.89949013 146.52945947 108.22737849 144.1171875 111.90625 C143.44115479 112.9588501 143.44115479 112.9588501 142.75146484 114.03271484 C138.78357195 120.10772448 134.36765944 125.67373812 129.6171875 131.15625 C128.73746346 132.21699546 127.85996088 133.27958616 126.984375 134.34375 C110.17124557 154.62055348 91.32850074 172.32409319 67.6171875 184.15625 C66.97458984 184.47819336 66.33199219 184.80013672 65.66992188 185.13183594 C38.34191136 198.54865316 5.23113926 202.56515909 -24.3828125 195.15625 C-25.42526123 194.89884033 -25.42526123 194.89884033 -26.48876953 194.63623047 C-48.72871903 188.9789212 -69.24403248 178.51844916 -86.3828125 163.15625 C-87.3315625 162.31578125 -88.2803125 161.4753125 -89.2578125 160.609375 C-92.3478467 157.84215754 -95.37495537 155.01235601 -98.3828125 152.15625 C-98.91696777 151.65077637 -99.45112305 151.14530273 -100.00146484 150.62451172 C-108.29597637 142.71946017 -115.57819253 134.3694734 -122.3828125 125.15625 C-122.82786133 124.55603027 -123.27291016 123.95581055 -123.73144531 123.33740234 C-128.00900923 117.53834089 -132.17243199 111.65612176 -136.0703125 105.59375 C-136.54855469 104.84996094 -137.02679688 104.10617187 -137.51953125 103.33984375 C-138.67326489 100.4215763 -138.38846118 99.12467789 -137.3828125 96.15625 C-136.13314273 93.90172049 -134.86651818 91.79554801 -133.4453125 89.65625 C-133.04634766 89.04676514 -132.64738281 88.43728027 -132.23632812 87.80932617 C-127.93911234 81.33760558 -123.22561027 75.22517014 -118.3828125 69.15625 C-117.67640625 68.25519531 -116.97 67.35414063 -116.2421875 66.42578125 C-89.01546385 32.29153697 -52.51010178 5.82641295 -8.2578125 0.40625 C-5.50691579 0.21974853 -2.75442488 0.12722517 0 0 Z M-60.3828125 49.15625 C-76.37575168 67.95731395 -80.99266851 87.00840992 -79.3828125 111.15625 C-77.78240112 124.75974669 -70.41897794 137.13559961 -61.3828125 147.15625 C-60.80273438 147.82914063 -60.22265625 148.50203125 -59.625 149.1953125 C-46.26175071 163.71555307 -26.05864581 172.93607596 -6.50292969 174.45825195 C-3.06189294 174.60083852 0.37450616 174.62342136 3.81811523 174.60229492 C5.91815921 174.59379665 8.01545725 174.62265673 10.11523438 174.65429688 C22.97141098 174.72250363 35.62514547 172.52531778 47.0546875 166.34375 C48.04976318 165.82337158 48.04976318 165.82337158 49.06494141 165.29248047 C68.31381889 154.96323958 81.95769971 137.35483545 88.9921875 116.84375 C93.72851438 98.79774505 91.16514746 80.72730548 82.8046875 64.28125 C79.59808025 58.80535146 75.7834562 53.93061315 71.6171875 49.15625 C71.09769531 48.54136719 70.57820312 47.92648437 70.04296875 47.29296875 C56.95659419 32.95399411 35.51729081 24.53021002 16.41015625 23.25 C15.02763672 23.20359375 15.02763672 23.20359375 13.6171875 23.15625 C12.99150879 23.13046875 12.36583008 23.1046875 11.72119141 23.078125 C-15.06433943 22.0890447 -41.46257231 29.06678148 -60.3828125 49.15625 Z " fill="#0380D2" transform="translate(174.3828125,404.84375)"/>
<path d="M0 0 C51.77229212 0 51.77229212 0 62.3125 10.03515625 C68.77699525 17.56210327 70.42407706 24.88520241 70.34765625 34.6015625 C69.58197031 42.08635766 65.78535066 48.26653128 60 53 C58.45180766 54.06028537 56.89376882 55.10628269 55.328125 56.140625 C54.51762695 56.67719727 53.70712891 57.21376953 52.87207031 57.76660156 C52.25428711 58.17362305 51.63650391 58.58064453 51 59 C51.45101074 59.71410034 51.45101074 59.71410034 51.91113281 60.44262695 C52.33749023 61.11769287 52.76384766 61.79275879 53.203125 62.48828125 C53.68362305 63.24898926 54.16412109 64.00969727 54.65917969 64.79345703 C55.72783246 66.48565459 56.79618745 68.17804024 57.86425781 69.87060547 C60.72550382 74.40384497 63.59183425 78.93371728 66.46875 83.45703125 C67.01885742 84.32352295 67.56896484 85.19001465 68.13574219 86.08276367 C69.20230457 87.76245425 70.27063253 89.44102517 71.34082031 91.1184082 C71.82131836 91.87597412 72.30181641 92.63354004 72.796875 93.4140625 C73.43641113 94.41880615 73.43641113 94.41880615 74.08886719 95.44384766 C75 97 75 97 75 98 C71.79324529 98.2631068 68.58926334 98.4216804 65.375 98.5625 C64.01955078 98.67561523 64.01955078 98.67561523 62.63671875 98.79101562 C56.11823096 99.00512654 56.11823096 99.00512654 53.27416992 96.44873047 C51.61457027 94.04785594 50.30576396 91.61130526 49 89 C46.8624493 84.9372522 44.7157761 80.88023273 42.53540039 76.84033203 C41.88432825 75.60876821 41.25184473 74.36720499 40.63793945 73.11669922 C40.33267334 72.49939941 40.02740723 71.88209961 39.71289062 71.24609375 C39.44955933 70.69880615 39.18622803 70.15151855 38.91491699 69.58764648 C37.24287126 66.85112416 35.05667039 64.46056869 33 62 C28.05 61.67 23.1 61.34 18 61 C18 73.21 18 85.42 18 98 C12.06 98 6.12 98 0 98 C0 65.66 0 33.32 0 0 Z " fill="#0D2847" transform="translate(358,454)"/>
<path d="M0 0 C8.18249999 6.05113023 12.9313306 13.40472289 15.234375 23.3046875 C16.55905499 36.25764356 15.11267438 47.42013127 7.19140625 58.04296875 C0.6147665 65.64351648 -7.71628709 69.6423336 -17.67578125 70.578125 C-28.63701246 70.93127495 -36.75661547 68.16427533 -45.203125 61.1171875 C-49.76304494 56.71097273 -52.5518104 52.22108284 -54.765625 46.3046875 C-55.00925781 45.66015625 -55.25289062 45.015625 -55.50390625 44.3515625 C-58.38485509 35.02277577 -57.69585433 24.18848889 -53.765625 15.3046875 C-48.60076035 5.53810543 -41.19473073 -1.04904621 -30.765625 -4.6953125 C-20.33462467 -7.85429431 -9.13677884 -5.60079381 0 0 Z " fill="#0B2746" transform="translate(655.765625,483.6953125)"/>
<path d="M0 0 C5.61 0 11.22 0 17 0 C21.62 16.17 26.24 32.34 31 49 C32.39956383 46.20087235 33.36661878 44.08545955 34.18920898 41.16870117 C34.39960312 40.43080856 34.60999725 39.69291595 34.82676697 38.93266296 C35.04764481 38.14406387 35.26852264 37.35546478 35.49609375 36.54296875 C35.9772019 34.85611647 36.45832207 33.16926762 36.93945312 31.48242188 C37.68886936 28.83654377 38.43672887 26.19023164 39.18383789 23.54370117 C39.90908607 20.97984954 40.63990811 18.41763229 41.37109375 15.85546875 C41.69937416 14.68167915 41.69937416 14.68167915 42.0342865 13.48417664 C42.24783279 12.73682755 42.46137909 11.98947845 42.68139648 11.21948242 C42.86411606 10.5720256 43.04683563 9.92456879 43.23509216 9.25749207 C44.30412689 6.10242254 45.68775206 3.06191186 47 0 C52.28 0 57.56 0 63 0 C67.62 16.17 72.24 32.34 77 49 C79.36523575 42.80143737 79.36523575 42.80143737 81.33447266 36.54345703 C81.55124664 35.76970734 81.76802063 34.99595764 81.99136353 34.19876099 C82.21335419 33.39324799 82.43534485 32.58773499 82.6640625 31.7578125 C82.90160248 30.90822968 83.13914246 30.05864685 83.38388062 29.18331909 C84.13425558 26.49812925 84.87998623 23.81168179 85.625 21.125 C86.37768892 18.41705022 87.13140883 15.70940083 87.88754272 13.00241089 C88.35600475 11.32472136 88.82240437 9.64645429 89.28652954 7.96755981 C90.88798918 2.22402164 90.88798918 2.22402164 92 0 C97.61 0 103.22 0 109 0 C106.75806743 8.45576122 104.2347896 16.79243735 101.5859375 25.12890625 C101.16649235 26.45356267 100.74719375 27.7782655 100.32803345 29.10301208 C99.45706196 31.85403098 98.58458157 34.60456504 97.7109375 37.35473633 C96.59079711 40.88117262 95.47415811 44.40870612 94.35857201 47.93658543 C93.49681403 50.66067306 92.63342741 53.38424226 91.76951981 56.10764885 C91.35679733 57.40928502 90.94453992 58.71106875 90.53275681 60.0130024 C89.96015596 61.82241792 89.3851661 63.6310769 88.81005859 65.43969727 C88.48379486 66.46797134 88.15753113 67.49624542 87.82138062 68.55567932 C87 71 87 71 86 73 C80.39 73 74.78 73 69 73 C68.58113525 71.55117432 68.16227051 70.10234863 67.73071289 68.60961914 C66.18158578 63.25449819 64.62819496 57.90062207 63.07348633 52.54711914 C62.40011347 50.22616989 61.72791062 47.90488085 61.05688477 45.58325195 C60.09435644 42.2538274 59.12768092 38.92563179 58.16015625 35.59765625 C57.85908463 34.55287613 57.558013 33.50809601 57.24781799 32.43165588 C56.8274955 30.99027504 56.8274955 30.99027504 56.39868164 29.51977539 C56.15219376 28.66928116 55.90570587 27.81878693 55.65174866 26.94252014 C55.16649542 25.01801008 55.16649542 25.01801008 54 24 C53.82682755 24.58437836 53.65365509 25.16875671 53.47523499 25.77084351 C51.67688381 31.83812721 49.87594631 37.90463882 48.07348633 43.97070312 C47.40061771 46.23645535 46.7284149 48.5024054 46.05688477 50.76855469 C45.09304852 54.02070179 44.12684141 57.27213625 43.16015625 60.5234375 C42.85908463 61.54118256 42.558013 62.55892761 42.24781799 63.60751343 C41.967603 64.54833771 41.687388 65.48916199 41.39868164 66.45849609 C41.15219376 67.28900482 40.90570587 68.11951355 40.65174866 68.97518921 C40 71 40 71 39 73 C33.39 73 27.78 73 22 73 C19.12540083 64.07456417 16.25571784 55.14758884 13.39466858 46.21780014 C12.06598745 42.0714513 10.73516031 37.92581702 9.39941406 33.78173828 C8.11053645 29.78279619 6.82731562 25.78207968 5.54800415 21.78006744 C5.05881977 20.25320062 4.56759726 18.72698524 4.0743103 17.2014389 C3.38398418 15.06534107 2.70092721 12.92704629 2.01953125 10.78808594 C1.62870361 9.5711908 1.23787598 8.35429565 0.83520508 7.1005249 C0 4 0 4 0 0 Z " fill="#0C2746" transform="translate(868,479)"/>
<path d="M0 0 C6.63194219 6.43830884 9.04947435 14.52174716 9.22705078 23.59375 C9.2267378 25.62502753 9.2156584 27.65632435 9.1953125 29.6875 C9.1924826 30.76378662 9.18965271 31.84007324 9.18673706 32.94897461 C9.17560731 36.36193299 9.15051595 39.7746219 9.125 43.1875 C9.11496089 45.51171494 9.10583667 47.83593402 9.09765625 50.16015625 C9.07569155 55.83604018 9.04121151 61.51172451 9 67.1875 C3.39 67.1875 -2.22 67.1875 -8 67.1875 C-8 65.5375 -8 63.8875 -8 62.1875 C-8.8353125 62.69410156 -8.8353125 62.69410156 -9.6875 63.2109375 C-18.56207716 68.39776807 -27.33159162 70.99857403 -37.61328125 68.5703125 C-44.86531609 66.08327172 -49.18954668 61.75212888 -53.1640625 55.296875 C-55.16730421 50.24196602 -54.76315651 43.97964748 -53.34765625 38.80078125 C-50.70833246 32.85380704 -46.59350654 29.5885572 -40.60546875 27.25390625 C-32.45685409 24.63783795 -24.49575462 24.02929393 -16 24.125 C-15.22527344 24.12951172 -14.45054687 24.13402344 -13.65234375 24.13867188 C-11.76819476 24.15030242 -9.88408635 24.16823094 -8 24.1875 C-8.93437598 18.54436085 -9.813082 14.374418 -14 10.1875 C-18.42853724 7.97323138 -24.19208191 8.64534319 -29 9.1875 C-32.55423623 11.71647578 -33.63748421 13.09995262 -35 17.1875 C-37.10448938 17.04640014 -39.2085877 16.89945825 -41.3125 16.75 C-42.48425781 16.66878906 -43.65601563 16.58757812 -44.86328125 16.50390625 C-48 16.1875 -48 16.1875 -51 15.1875 C-50.4364529 8.14316123 -48.26261179 4.34955127 -43.1875 -0.5 C-30.84414599 -9.45498232 -12.15036639 -9.68394586 0 0 Z " fill="#0D2847" transform="translate(493,484.8125)"/>
<path d="M0 0 C10.2805398 10.74783707 10.75 20.78084985 10.75 35.875 C-5.42 35.875 -21.59 35.875 -38.25 35.875 C-35.13498319 46.11354387 -35.13498319 46.11354387 -28.25 51.875 C-22.81382947 53.68705684 -17.26784814 53.5849836 -11.875 51.6875 C-9.03316076 49.72527767 -7.22866284 47.69078943 -5.25 44.875 C-0.47390502 46.51678265 3.54382904 49.14046702 7.75 51.875 C6.30849821 57.16050655 2.9408711 60.54602503 -1.25 63.875 C-10.39198802 69.00005389 -19.85374587 70.32678463 -30.1953125 68.296875 C-39.29118823 65.44631566 -46.48493518 59.43579934 -51.25 51.1875 C-56.41579138 41.10281168 -56.78702364 29.49025348 -54.5625 18.46875 C-51.10971551 8.22548936 -44.28128794 0.22571552 -34.875 -5 C-23.02592405 -8.86483532 -10.18354616 -6.65847249 0 0 Z " fill="#0C2746" transform="translate(852.25,485.125)"/>
<path d="M0 0 C5.94 0 11.88 0 18 0 C18.79921875 2.21589844 19.5984375 4.43179687 20.421875 6.71484375 C20.95283922 8.18621294 21.48384033 9.65756883 22.01489258 11.12890625 C23.17972978 14.35643368 24.34346124 17.58435718 25.5065918 20.8125 C28.48909702 29.08434305 31.48966677 37.34877813 34.53515625 45.59765625 C35.36207524 47.84446391 36.1885864 50.09142122 37.01501465 52.33840942 C37.5451577 53.77536651 38.07761649 55.21147143 38.61242676 56.646698 C39.35799299 58.64783024 40.09575719 60.65168398 40.83203125 62.65625 C41.25202393 63.78869141 41.6720166 64.92113281 42.10473633 66.08789062 C43 69 43 69 43 73 C43.66 73 44.32 73 45 73 C45.25885986 71.72237793 45.51771973 70.44475586 45.78442383 69.12841797 C46.94703719 63.91119287 48.63295871 58.96628858 50.44921875 53.9453125 C50.78492386 53.0042868 51.12062897 52.06326111 51.46650696 51.09371948 C52.53516601 48.10232734 53.611293 45.11368373 54.6875 42.125 C55.39044552 40.15902271 56.09292305 38.19287803 56.79492188 36.2265625 C61.12294428 24.12352054 65.53938573 12.05476622 70 0 C76.27 0 82.54 0 89 0 C88.32195312 1.84078125 87.64390625 3.6815625 86.9453125 5.578125 C82.30327429 18.19921856 77.68602842 30.82684739 73.1875 43.5 C69.01680207 55.23776886 64.7418315 66.9356907 60.4375 78.625 C60.12364349 79.47843994 59.80978699 80.33187988 59.48641968 81.21118164 C58.59520794 83.63349297 57.70225479 86.05515387 56.80859375 88.4765625 C56.5392804 89.20851837 56.26996704 89.94047424 55.99249268 90.6946106 C54.1155962 95.7688076 54.1155962 95.7688076 53 98 C47.06 98 41.12 98 35 98 C28.89244327 82.59094868 23.26488353 67.01983311 17.67071533 51.41937256 C15.73468681 46.02128087 13.795409 40.62435674 11.85487747 35.22788239 C11.38873494 33.93107647 10.92290901 32.63415671 10.45740891 31.33712006 C7.37910882 22.76047427 4.23578632 14.21593261 0.92797852 5.72509766 C0 3 0 3 0 0 Z " fill="#0BA072" transform="translate(669,454)"/>
<path d="M0 0 C0.84175781 -0.00257813 1.68351563 -0.00515625 2.55078125 -0.0078125 C3.87142578 0.00378906 3.87142578 0.00378906 5.21875 0.015625 C6.09917969 0.00789063 6.97960937 0.00015625 7.88671875 -0.0078125 C8.72847656 -0.00523437 9.57023438 -0.00265625 10.4375 0 C11.59668945 0.00338379 11.59668945 0.00338379 12.77929688 0.00683594 C14.71875 0.265625 14.71875 0.265625 16.71875 2.265625 C16.92219161 4.68726484 17.00200041 6.99505212 16.9934082 9.41821289 C17.0010746 10.52350342 17.0010746 10.52350342 17.00889587 11.65112305 C17.02283858 14.09692429 17.02183036 16.54244488 17.01953125 18.98828125 C17.02341823 20.69022222 17.02775291 22.39216221 17.03251648 24.09410095 C17.03999062 27.6694553 17.03968071 31.24471097 17.03442383 34.82006836 C17.0286554 39.38400683 17.0454903 43.947536 17.0687685 48.5114069 C17.08356936 52.03149244 17.08436846 55.55148118 17.08125877 59.07159233 C17.08176972 60.75276939 17.08696464 62.43395219 17.09707069 64.11509895 C17.18574444 80.94383039 13.62446428 90.40413096 1.84375 102.50390625 C-0.67698462 104.59370646 -3.34305307 105.84131002 -6.28125 107.265625 C-6.32751079 93.60988105 -6.36308729 79.95415562 -6.38487434 66.29834938 C-6.39532896 59.9579861 -6.40951869 53.61767626 -6.43212891 47.27734375 C-6.45379755 41.16305386 -6.46580597 35.04881551 -6.47100449 28.9344902 C-6.47471102 26.59720421 -6.48194852 24.25992117 -6.49271011 21.92265701 C-6.50714556 18.65882433 -6.50923128 15.39520692 -6.50830078 12.13134766 C-6.51549133 11.15671066 -6.52268188 10.18207367 -6.53009033 9.17790222 C-6.527341 8.29166672 -6.52459167 7.40543121 -6.52175903 6.49234009 C-6.52360262 5.71987757 -6.52544621 4.94741505 -6.52734566 4.15154457 C-5.99806598 0.09548395 -3.47943062 0.0101568 0 0 Z " fill="#12BC85" transform="translate(204.28125,450.734375)"/>
<path d="M0 0 C5.61 0 11.22 0 17 0 C17 6.27 17 12.54 17 19 C22.61 19 28.22 19 34 19 C34 23.62 34 28.24 34 33 C28.39 33 22.78 33 17 33 C17.06894972 38.60549826 17.15695228 44.21025579 17.26245117 49.81518555 C17.29565962 51.72102631 17.32370425 53.62696446 17.34643555 55.53295898 C17.38005668 58.27630015 17.43237595 61.01875222 17.48828125 63.76171875 C17.49467117 64.61086349 17.5010611 65.46000824 17.50764465 66.33488464 C17.62340817 71.01622454 17.95393985 74.20421225 21 78 C25.31160613 80.15580306 30.50927531 79.12268117 35 78 C35.66 81.96 36.32 85.92 37 90 C29.88533347 93.80551931 22.80633329 95.31914907 14.81640625 93.50390625 C8.21631908 91.2955595 4.17327712 87.18789038 1 81 C0.11728897 78.10695899 -0.12219767 75.52479085 -0.11352539 72.50683594 C-0.11344986 71.62622498 -0.11337433 70.74561401 -0.11329651 69.83831787 C-0.10813522 68.89651672 -0.10297394 67.95471558 -0.09765625 66.984375 C-0.0962413 66.01340881 -0.09482635 65.04244263 -0.09336853 64.04205322 C-0.08777663 60.94467065 -0.07522559 57.84736068 -0.0625 54.75 C-0.05748395 52.64843854 -0.05292123 50.54687596 -0.04882812 48.4453125 C-0.03780985 43.29684708 -0.02055074 38.14843584 0 33 C-3.63 33 -7.26 33 -11 33 C-11 28.38 -11 23.76 -11 19 C-7.37 19 -3.74 19 0 19 C0 12.73 0 6.46 0 0 Z " fill="#0F2A49" transform="translate(521,460)"/>
<path d="M0 0 C1.40958984 -0.00193359 1.40958984 -0.00193359 2.84765625 -0.00390625 C3.83636719 -0.00003906 4.82507813 0.00382812 5.84375 0.0078125 C7.32681641 0.00201172 7.32681641 0.00201172 8.83984375 -0.00390625 C9.77957031 -0.00261719 10.71929687 -0.00132812 11.6875 0 C12.55568359 0.00112793 13.42386719 0.00225586 14.31835938 0.00341797 C16.34375 0.1328125 16.34375 0.1328125 17.34375 1.1328125 C17.43887944 3.81069223 17.46930279 6.46270119 17.45727539 9.14086914 C17.45742142 9.97982224 17.45756744 10.81877533 17.4577179 11.68315125 C17.4570185 14.46978294 17.44922485 17.25634866 17.44140625 20.04296875 C17.43954217 21.96968041 17.43811822 23.89639255 17.43711853 25.82310486 C17.43329259 30.90468647 17.42346166 35.9862397 17.41241455 41.06781006 C17.40220206 46.24897884 17.39762126 51.43015219 17.39257812 56.61132812 C17.38183946 66.78516875 17.36476213 76.95898827 17.34375 87.1328125 C14.13663052 88.46661858 11.65884256 89.38436178 8.171875 89.36328125 C7.42550781 89.36134766 6.67914063 89.35941406 5.91015625 89.35742188 C5.14574219 89.34517578 4.38132813 89.33292969 3.59375 89.3203125 C2.81386719 89.31966797 2.03398437 89.31902344 1.23046875 89.31835938 C-4.51567293 89.27338957 -4.51567293 89.27338957 -5.65625 88.1328125 C-5.75671803 85.42980951 -5.79241452 82.75232904 -5.78564453 80.04882812 C-5.78739685 79.20172775 -5.78914917 78.35462738 -5.79095459 77.4818573 C-5.79537409 74.66757184 -5.79243477 71.85334866 -5.7890625 69.0390625 C-5.78973551 67.09232572 -5.79070551 65.14558903 -5.79196167 63.19885254 C-5.79343878 59.11319175 -5.79128368 55.02755279 -5.78662109 50.94189453 C-5.7809238 45.69234734 -5.78420274 40.44285128 -5.79019356 35.19330597 C-5.79379883 31.17172863 -5.79266074 27.15016351 -5.79006577 23.12858582 C-5.7893964 21.19239801 -5.79022525 19.25620911 -5.79254532 17.32002258 C-5.79507129 14.61891726 -5.79123205 11.91789591 -5.78564453 9.21679688 C-5.78766876 8.40844894 -5.78969299 7.60010101 -5.79177856 6.76725769 C-5.76573707 0.00749075 -5.76573707 0.00749075 0 0 Z " fill="#0A2645" transform="translate(169.65625,474.8671875)"/>
<path d="M0 0 C1.25586914 -0.00386719 1.25586914 -0.00386719 2.53710938 -0.0078125 C3.41302734 -0.00007813 4.28894531 0.00765625 5.19140625 0.015625 C6.06345703 0.00789063 6.93550781 0.00015625 7.83398438 -0.0078125 C8.67251953 -0.00523437 9.51105469 -0.00265625 10.375 0 C11.14255615 0.00225586 11.9101123 0.00451172 12.70092773 0.00683594 C14.75390625 0.265625 14.75390625 0.265625 17.75390625 2.265625 C18.1146698 4.89785767 18.1146698 4.89785767 18.09448242 8.27587891 C18.09425583 9.53703522 18.09402924 10.79819153 18.09379578 12.0975647 C18.07847469 13.47910921 18.06282669 14.86065013 18.046875 16.2421875 C18.04128058 17.65180003 18.03700975 19.06141838 18.03401184 20.47103882 C18.02255079 24.18330964 17.99307329 27.895229 17.9598999 31.60736084 C17.92922585 35.39444219 17.91551224 39.18158026 17.90039062 42.96875 C17.86820436 50.401202 17.81699335 57.83336428 17.75390625 65.265625 C8.41248295 63.90588949 0.86566385 58.34239696 -5.24609375 51.265625 C-6.19009317 48.43362675 -6.37745055 46.66921531 -6.39135742 43.73413086 C-6.39773727 42.81985825 -6.40411713 41.90558563 -6.41069031 40.96360779 C-6.41180313 39.97917191 -6.41291595 38.99473602 -6.4140625 37.98046875 C-6.4173909 36.96843887 -6.4207193 35.956409 -6.42414856 34.91371155 C-6.42921152 32.77442886 -6.43155708 30.63513828 -6.43139648 28.49584961 C-6.43358743 25.21259692 -6.4517621 21.92967779 -6.47070312 18.64648438 C-6.47363621 16.57031365 -6.47562157 14.49414133 -6.4765625 12.41796875 C-6.48374802 11.43150864 -6.49093353 10.44504852 -6.49833679 9.42869568 C-6.49526016 8.51757523 -6.49218353 7.60645477 -6.48901367 6.66772461 C-6.49043869 5.86402939 -6.49186371 5.06033417 -6.49333191 4.23228455 C-5.97924274 0.14295474 -3.53216567 0.01039637 0 0 Z " fill="#0A2647" transform="translate(136.24609375,494.734375)"/>
<path d="M0 0 C6.01979122 3.22442381 9.29528855 7.7279348 11.45703125 14.046875 C13.19949111 21.26924487 12.37852899 28.67066604 8.99609375 35.28125 C5.88451909 39.74501513 2.56418682 44.19479282 -3.00390625 45.28125 C-9.46778288 45.90678645 -12.70933779 45.0485391 -18.00390625 41.28125 C-23.78705304 35.33746024 -25.20826587 29.93934873 -25.44140625 21.84375 C-25.26911764 14.56455621 -24.3864694 9.77144016 -19.28515625 4.5078125 C-13.72122287 -0.51387313 -7.36305997 -2.64094159 0 0 Z " fill="#F7F6F5" transform="translate(642.00390625,493.71875)"/>
<path d="M0 0 C5.61 0 11.22 0 17 0 C17 24.09 17 48.18 17 73 C11.39 73 5.78 73 0 73 C0 48.91 0 24.82 0 0 Z " fill="#092543" transform="translate(767,479)"/>
<path d="M0 0 C5.28 0 10.56 0 16 0 C16 24.09 16 48.18 16 73 C10.72 73 5.44 73 0 73 C0 48.91 0 24.82 0 0 Z " fill="#092340" transform="translate(570,479)"/>
<path d="M0 0 C5.506875 -0.12375 5.506875 -0.12375 11.125 -0.25 C12.2711377 -0.28641602 13.41727539 -0.32283203 14.59814453 -0.36035156 C20.75086321 -0.42724067 24.34855979 -0.15226126 29 4 C32.34225085 7.70357527 33.86259557 10.21374243 34.25 15.25 C33.96264356 19.56034663 33.12771765 22.24103215 31 26 C26.05798876 29.99566866 22.23934535 31.13560576 16.015625 31.09765625 C15.17290039 31.09515869 14.33017578 31.09266113 13.46191406 31.09008789 C12.40198242 31.08098389 11.34205078 31.07187988 10.25 31.0625 C6.8675 31.041875 3.485 31.02125 0 31 C0 20.77 0 10.54 0 0 Z " fill="#F7F6F5" transform="translate(376,469)"/>
<path d="M0 0 C0.93134766 0.00902344 1.86269531 0.01804687 2.82226562 0.02734375 C5.1109436 0.05081737 7.39908672 0.08365271 9.6875 0.125 C10.74779562 10.67746597 10.74779562 10.67746597 8.33984375 13.96484375 C6.50883302 15.28880536 4.76371803 16.23819432 2.6875 17.125 C1.6975 17.558125 0.7075 17.99125 -0.3125 18.4375 C-6.8962327 19.94627208 -11.46405911 19.22123341 -17.3125 16.125 C-19.79288907 12.4044164 -19.77587203 10.52703429 -19.3125 6.125 C-14.40975018 -0.59358309 -7.5684292 -0.13906654 0 0 Z " fill="#F4F4F4" transform="translate(475.3125,521.875)"/>
<path d="M0 0 C4.873387 2.30378294 7.48191114 5.25437099 10 10 C10 11.65 10 13.3 10 15 C-0.23 15 -10.46 15 -21 15 C-19.95571388 7.68999717 -19.16951336 5.78532992 -13.9375 1.1875 C-9.32284352 -0.67799943 -4.90334228 -0.64176097 0 0 Z " fill="#F7F6F6" transform="translate(836,493)"/>
<path d="M0 0 C3.81504836 1.69557705 5.47668134 3.1501583 7 7 C7.31096221 11.52888552 6.80424554 15.00078585 3.9375 18.5625 C0.19023774 20.39626664 -2.95710932 20.90017488 -7 20 C-9.79628419 18.63801675 -10.85849718 17.45489348 -13 15 C-14.125 11.5625 -14.125 11.5625 -14 8 C-10.51755225 1.40822391 -7.44656755 -0.64194548 0 0 Z " fill="#0C2644" transform="translate(778,448)"/>
<path d="M0 0 C2.82275936 1.25455972 4.46288541 2.28384722 6.3125 4.75 C7.31199111 8.0210618 7.3581657 10.59742588 7 14 C5.20437595 16.75329021 3.94745078 18.52627461 1 20 C-6.08958838 20.5811138 -6.08958838 20.5811138 -9.9375 18.125 C-13.09695358 14.8698054 -13.33421243 12.57586762 -13.29296875 8.0390625 C-12.83745033 4.86865433 -11.24684343 3.1807598 -9 1 C-5.93570224 -0.53214888 -3.3834358 -0.22938548 0 0 Z " fill="#0C2544" transform="translate(581,448)"/>
<path d="M0 0 C5.61 0 11.22 0 17 0 C17 24.09 17 48.18 17 73 C15.515 72.505 15.515 72.505 14 72 C14 49.23 14 26.46 14 3 C9.71 3 5.42 3 1 3 C0.67 2.01 0.34 1.02 0 0 Z " fill="#23415E" transform="translate(767,479)"/>
<path d="M0 0 C5.28 0 10.56 0 16 0 C15.67 23.76 15.34 47.52 15 72 C14.67 72 14.34 72 14 72 C14 49.23 14 26.46 14 3 C10.04 3 6.08 3 2 3 C2 25.77 2 48.54 2 72 C1.67 72 1.34 72 1 72 C0.67 48.24 0.34 24.48 0 0 Z " fill="#193654" transform="translate(570,479)"/>
<path d="M0 0 C3.63 0 7.26 0 11 0 C10.67 0.99 10.34 1.98 10 3 C7.69 3 5.38 3 3 3 C3 5.64 3 8.28 3 11 C5.64 11 8.28 11 11 11 C11 11.99 11 12.98 11 14 C7.37 14 3.74 14 0 14 C0 9.38 0 4.76 0 0 Z " fill="#20354F" transform="translate(510,479)"/>
<path d="M0 0 C5.61 0 11.22 0 17 0 C16.67 10.56 16.34 21.12 16 32 C15.67 32 15.34 32 15 32 C15 22.1 15 12.2 15 2 C10.38 2 5.76 2 1 2 C0.67 1.34 0.34 0.68 0 0 Z " fill="#1C263C" transform="translate(767,479)"/>
<path d="M0 0 C1.84036681 2.76055022 2.68344114 4.74598117 3.625 7.875 C3.88539063 8.71804688 4.14578125 9.56109375 4.4140625 10.4296875 C5.00963022 13.04224458 5.10525251 15.33041371 5 18 C1.74973875 15.24977894 0.15620031 13.7289348 -0.75 9.5 C-0.8325 8.345 -0.915 7.19 -1 6 C-1.31966139 4.33065717 -1.64731066 2.6626783 -2 1 C-1.34 0.67 -0.68 0.34 0 0 Z " fill="#0FB27A" transform="translate(698,487)"/>
<path d="M0 0 C0.33 0 0.66 0 1 0 C1 3.96 1 7.92 1 12 C-0.65 12.66 -2.3 13.32 -4 14 C-3.67 14.99 -3.34 15.98 -3 17 C-3.66 17 -4.32 17 -5 17 C-5.66 18.32 -6.32 19.64 -7 21 C-5.62820313 13.51747162 -3.07836721 6.94395046 0 0 Z " fill="#0A8F62" transform="translate(732,475)"/>
<path d="M0 0 C1.05445313 -0.01417969 2.10890625 -0.02835937 3.1953125 -0.04296875 C5.875 0.1875 5.875 0.1875 7.875 2.1875 C4.80966836 3.72016582 1.60745728 3.29026471 -1.75 3.25 C-2.45640625 3.24548828 -3.1628125 3.24097656 -3.890625 3.23632812 C-5.63545275 3.22453875 -7.380237 3.20660324 -9.125 3.1875 C-9.455 2.5275 -9.785 1.8675 -10.125 1.1875 C-6.71740374 0.15863639 -3.5507762 0.02181066 0 0 Z " fill="#243651" transform="translate(635.125,477.8125)"/>
<path d="M0 0 C1.32 0.33 2.64 0.66 4 1 C4.39180108 2.57925975 4.76280736 4.16368794 5.125 5.75 C5.33382812 6.63171875 5.54265625 7.5134375 5.7578125 8.421875 C6.03088304 11.32875493 5.53508028 12.56661348 4 15 C3.3299166 12.87607494 2.66403203 10.75082476 2 8.625 C1.62875 7.44164062 1.2575 6.25828125 0.875 5.0390625 C0 2 0 2 0 0 Z " fill="#EFF1F2" transform="translate(941,516)"/>
<path d="M0 0 C5.61 0 11.22 0 17 0 C16.67 0.99 16.34 1.98 16 3 C10.72 3 5.44 3 0 3 C0 2.01 0 1.02 0 0 Z " fill="#323E51" transform="translate(960,479)"/>
<path d="M0 0 C0.66 0 1.32 0 2 0 C2.125 5.75 2.125 5.75 1 8 C0.34 8 -0.32 8 -1 8 C-1.12375 9.134375 -1.2475 10.26875 -1.375 11.4375 C-1.58125 12.613125 -1.7875 13.78875 -2 15 C-2.99 15.495 -2.99 15.495 -4 16 C-2.68 10.72 -1.36 5.44 0 0 Z " fill="#EDF0F2" transform="translate(913,530)"/>
<path d="M0 0 C1.23593891 3.70781672 0.5678132 4.67510253 -0.9375 8.1875 C-1.31777344 9.08855469 -1.69804688 9.98960937 -2.08984375 10.91796875 C-2.54037109 11.94857422 -2.54037109 11.94857422 -3 13 C-3.97591583 9.61682513 -3.85856655 7.4342662 -3 4 C-2.34 4 -1.68 4 -1 4 C-0.67 2.68 -0.34 1.36 0 0 Z " fill="#0C8A5D" transform="translate(733,517)"/>
<path d="M0 0 C0.33 0 0.66 0 1 0 C1.32712342 6.13053511 1.39366878 10.62669111 -2 16 C-3.277348 13.445304 -2.96864177 11.95320227 -2.6875 9.125 C-2.60886719 8.26132812 -2.53023437 7.39765625 -2.44921875 6.5078125 C-1.99975463 3.99863021 -1.25529756 2.20317531 0 0 Z " fill="#EFF1F2" transform="translate(673,510)"/>
<path d="M0 0 C0.66 0 1.32 0 2 0 C3.80230168 3.82989106 4.19622241 6.78121808 4 11 C3.01 10.67 2.02 10.34 1 10 C1.33 8.68 1.66 7.36 2 6 C1.34 5.67 0.68 5.34 0 5 C0 3.35 0 1.7 0 0 Z " fill="#E0E5E8" transform="translate(481,498)"/>
<path d="M0 0 C2.475 0.495 2.475 0.495 5 1 C5.66 3.31 6.32 5.62 7 8 C6.34 8.66 5.68 9.32 5 10 C3.33333333 6.66666667 1.66666667 3.33333333 0 0 Z " fill="#12B97E" transform="translate(683,455)"/>
<path d="M0 0 C2.875 -0.125 2.875 -0.125 6 0 C6.66 0.66 7.32 1.32 8 2 C7.40832031 2.12117188 6.81664062 2.24234375 6.20703125 2.3671875 C1.96196415 3.26744643 -2.02439661 4.20456621 -6 6 C-5.67 5.01 -5.34 4.02 -5 3 C-3.35 2.67 -1.7 2.34 0 2 C0 1.34 0 0.68 0 0 Z " fill="#E7EBEC" transform="translate(458,477)"/>
<path d="M0 0 C0.33 0.66 0.66 1.32 1 2 C1.66 2.33 2.32 2.66 3 3 C3.40729228 5.32156597 3.74438677 7.6568787 4 10 C3.01 10 2.02 10 1 10 C-1.125 3.375 -1.125 3.375 0 0 Z " fill="#14B57F" transform="translate(677,472)"/>
<path d="M0 0 C0.99 0.66 1.98 1.32 3 2 C1.35 4.64 -0.3 7.28 -2 10 C-3.19156292 5.23374833 -2.3415946 4.12120649 0 0 Z " fill="#0A8D5E" transform="translate(721,506)"/>
<path d="M0 0 C-0.33 0.99 -0.66 1.98 -1 3 C-3.97 2.67 -6.94 2.34 -10 2 C-6.3558226 -0.4294516 -4.28758728 -0.16179575 0 0 Z " fill="#1A304B" transform="translate(831,551)"/>
<path d="M0 0 C3.3 0.33 6.6 0.66 10 1 C10.33 1.99 10.66 2.98 11 4 C6.94393835 3.53199289 3.53411321 3.12046792 0 1 C0 0.67 0 0.34 0 0 Z " fill="#0B74CF" transform="translate(132,593)"/>
<path d="M0 0 C0.66 0 1.32 0 2 0 C1.34 2.64 0.68 5.28 0 8 C-0.66 8 -1.32 8 -2 8 C-2.33 6.35 -2.66 4.7 -3 3 C-2.34 3 -1.68 3 -1 3 C-0.67 2.01 -0.34 1.02 0 0 Z " fill="#E4F4EF" transform="translate(714,519)"/>
<path d="M0 0 C3.88862987 1.26117725 5.89375599 2.45264167 8 6 C8 6.66 8 7.32 8 8 C4.27382578 6.75794193 2.60708543 4.8889325 0 2 C0 1.34 0 0.68 0 0 Z " fill="#E8ECEF" transform="translate(850,483)"/>
<path d="M0 0 C0.99 0.33 1.98 0.66 3 1 C2.34 2.32 1.68 3.64 1 5 C-1.97 4.505 -1.97 4.505 -5 4 C-3.36587557 2.29159719 -2.13093906 1.06546953 0 0 Z " fill="#0B75CE" transform="translate(222,570)"/>
<path d="M0 0 C0.99 0.495 0.99 0.495 2 1 C2 1.66 2 2.32 2 3 C2.99 3.33 3.98 3.66 5 4 C4.67 5.98 4.34 7.96 4 10 C1.04816899 7.04816899 0.91336012 4.04488053 0 0 Z " fill="#078959" transform="translate(698,534)"/>
<path d="M0 0 C1.98 0 3.96 0 6 0 C6 0.99 6 1.98 6 3 C3.36 3 0.72 3 -2 3 C-1.34 2.67 -0.68 2.34 0 2 C0 1.34 0 0.68 0 0 Z " fill="#EBEEEF" transform="translate(633,536)"/>
<path d="M0 0 C0.99 0.33 1.98 0.66 3 1 C3.73046875 3.06640625 3.73046875 3.06640625 4.1875 5.5625 C4.34605469 6.38878906 4.50460937 7.21507812 4.66796875 8.06640625 C4.77753906 8.70449219 4.88710938 9.34257813 5 10 C2.81434857 7.81434857 1.45914246 5.71931095 0 3 C0 2.01 0 1.02 0 0 Z " fill="#0B9862" transform="translate(705,511)"/>
<path d="M0 0 C2.12508244 3.18762365 2.5020163 5.26512223 3 9 C2.34 9 1.68 9 1 9 C1 8.01 1 7.02 1 6 C0.34 6 -0.32 6 -1 6 C-0.67 4.02 -0.34 2.04 0 0 Z " fill="#E5EBEC" transform="translate(922,501)"/>
<path d="M0 0 C1.65 0.33 3.3 0.66 5 1 C3.71937515 2.7074998 2.38232443 4.37373596 1 6 C0.34 6 -0.32 6 -1 6 C-0.67 4.02 -0.34 2.04 0 0 Z " fill="#0E9268" transform="translate(739,454)"/>
<path d="M0 0 C0.88935377 3.303314 1.46274105 6.62294375 2 10 C-2 5.5 -2 5.5 -2 1 C-1.34 0.67 -0.68 0.34 0 0 Z " fill="#14BD87" transform="translate(698,487)"/>
<path d="M0 0 C0.33 0.99 0.66 1.98 1 3 C-3.75 5.875 -3.75 5.875 -6 7 C-5.39816251 4.97954558 -4.72693904 2.97888961 -4 1 C-2 0 -2 0 0 0 Z " fill="#162F4B" transform="translate(773,448)"/>
</svg>
